<svg width="79" height="103" viewBox="0 0 79 103" fill="none" xmlns="http://www.w3.org/2000/svg">
<circle cx="39.5" cy="36" r="36" fill="#E8EBF7"/>
<path d="M26.1354 30.293C25.7206 30.9382 25.5 31.6891 25.5 32.4563V49.7414C25.5 52.0934 27.6233 54 30.2425 54H48.7575C51.3767 54 53.5 52.0934 53.5 49.7414V22.2586C53.5 19.9066 51.3767 18 48.7575 18H35.1311C34.4507 18 33.8169 18.346 33.4489 18.9184L26.1354 30.293Z" fill="#1D3BC1"/>
<rect x="29.5" y="36" width="7.1361" height="5.52866" fill="#FEFEFE"/>
<path d="M29.5 44.4713H40.392V50H31.5C30.3954 50 29.5 49.1045 29.5 48V44.4713Z" fill="#FEFEFE"/>
<path d="M43.2089 44.4713H49.4999V48C49.4999 49.1045 48.6045 50 47.4999 50H43.2089V44.4713Z" fill="#FEFEFE"/>
<rect x="39.4297" y="36" width="10.0703" height="5.52866" fill="#FEFEFE"/>
<path d="M1.37997 99V87.3636H5.5277C6.433 87.3636 7.183 87.5284 7.7777 87.858C8.3724 88.1875 8.81747 88.6383 9.11293 89.2102C9.40838 89.7784 9.55611 90.4186 9.55611 91.1307C9.55611 91.8466 9.40649 92.4905 9.10724 93.0625C8.81179 93.6307 8.36482 94.0814 7.76634 94.4148C7.17164 94.7443 6.42353 94.9091 5.52202 94.9091H2.66974V93.4205H5.36293C5.9349 93.4205 6.39891 93.322 6.75497 93.125C7.11103 92.9242 7.3724 92.6515 7.53906 92.3068C7.70573 91.9621 7.78906 91.5701 7.78906 91.1307C7.78906 90.6913 7.70573 90.3011 7.53906 89.9602C7.3724 89.6193 7.10914 89.3523 6.74929 89.1591C6.39323 88.9659 5.92353 88.8693 5.3402 88.8693H3.13565V99H1.37997ZM15.0447 99.1761C14.2266 99.1761 13.5125 98.9886 12.9027 98.6136C12.2929 98.2386 11.8194 97.714 11.4822 97.0398C11.1451 96.3655 10.9766 95.5777 10.9766 94.6761C10.9766 93.7708 11.1451 92.9792 11.4822 92.3011C11.8194 91.6231 12.2929 91.0966 12.9027 90.7216C13.5125 90.3466 14.2266 90.1591 15.0447 90.1591C15.8629 90.1591 16.5769 90.3466 17.1868 90.7216C17.7966 91.0966 18.2701 91.6231 18.6072 92.3011C18.9444 92.9792 19.1129 93.7708 19.1129 94.6761C19.1129 95.5777 18.9444 96.3655 18.6072 97.0398C18.2701 97.714 17.7966 98.2386 17.1868 98.6136C16.5769 98.9886 15.8629 99.1761 15.0447 99.1761ZM15.0504 97.75C15.5807 97.75 16.0201 97.6098 16.3686 97.3295C16.7171 97.0492 16.9747 96.6761 17.1413 96.2102C17.3118 95.7443 17.397 95.2311 17.397 94.6705C17.397 94.1136 17.3118 93.6023 17.1413 93.1364C16.9747 92.6667 16.7171 92.2898 16.3686 92.0057C16.0201 91.7216 15.5807 91.5795 15.0504 91.5795C14.5163 91.5795 14.0732 91.7216 13.7209 92.0057C13.3724 92.2898 13.1129 92.6667 12.9425 93.1364C12.7758 93.6023 12.6925 94.1136 12.6925 94.6705C12.6925 95.2311 12.7758 95.7443 12.9425 96.2102C13.1129 96.6761 13.3724 97.0492 13.7209 97.3295C14.0732 97.6098 14.5163 97.75 15.0504 97.75ZM21.0092 99V90.2727H22.6513V91.6591H22.7422C22.9013 91.1894 23.1816 90.8201 23.5831 90.5511C23.9884 90.2784 24.4467 90.142 24.9581 90.142C25.0642 90.142 25.1892 90.1458 25.3331 90.1534C25.4808 90.161 25.5964 90.1705 25.6797 90.1818V91.8068C25.6115 91.7879 25.4903 91.767 25.3161 91.7443C25.1418 91.7178 24.9676 91.7045 24.7933 91.7045C24.3918 91.7045 24.0339 91.7898 23.7195 91.9602C23.4089 92.1269 23.1626 92.3598 22.9808 92.6591C22.799 92.9545 22.7081 93.2917 22.7081 93.6705V99H21.0092ZM31.7393 90.2727V91.6364H26.9723V90.2727H31.7393ZM28.2507 88.1818H29.9496V96.4375C29.9496 96.767 29.9988 97.0152 30.0973 97.1818C30.1958 97.3447 30.3227 97.4564 30.478 97.517C30.6371 97.5739 30.8094 97.6023 30.995 97.6023C31.1314 97.6023 31.2507 97.5928 31.353 97.5739C31.4553 97.5549 31.5348 97.5398 31.5916 97.5284L31.8984 98.9318C31.8 98.9697 31.6598 99.0076 31.478 99.0455C31.2962 99.0871 31.0689 99.1098 30.7962 99.1136C30.3492 99.1212 29.9325 99.0417 29.5462 98.875C29.1598 98.7083 28.8473 98.4508 28.6087 98.1023C28.37 97.7538 28.2507 97.3163 28.2507 96.7898V88.1818ZM41.9268 90.2727V91.6364H37.1598V90.2727H41.9268ZM38.4382 88.1818H40.1371V96.4375C40.1371 96.767 40.1863 97.0152 40.2848 97.1818C40.3833 97.3447 40.5102 97.4564 40.6655 97.517C40.8246 97.5739 40.9969 97.6023 41.1825 97.6023C41.3189 97.6023 41.4382 97.5928 41.5405 97.5739C41.6428 97.5549 41.7223 97.5398 41.7791 97.5284L42.0859 98.9318C41.9875 98.9697 41.8473 99.0076 41.6655 99.0455C41.4837 99.0871 41.2564 99.1098 40.9837 99.1136C40.5367 99.1212 40.12 99.0417 39.7337 98.875C39.3473 98.7083 39.0348 98.4508 38.7962 98.1023C38.5575 97.7538 38.4382 97.3163 38.4382 96.7898V88.1818ZM47.3885 99.1761C46.5703 99.1761 45.8563 98.9886 45.2464 98.6136C44.6366 98.2386 44.1631 97.714 43.826 97.0398C43.4889 96.3655 43.3203 95.5777 43.3203 94.6761C43.3203 93.7708 43.4889 92.9792 43.826 92.3011C44.1631 91.6231 44.6366 91.0966 45.2464 90.7216C45.8563 90.3466 46.5703 90.1591 47.3885 90.1591C48.2067 90.1591 48.9207 90.3466 49.5305 90.7216C50.1404 91.0966 50.6139 91.6231 50.951 92.3011C51.2881 92.9792 51.4567 93.7708 51.4567 94.6761C51.4567 95.5777 51.2881 96.3655 50.951 97.0398C50.6139 97.714 50.1404 98.2386 49.5305 98.6136C48.9207 98.9886 48.2067 99.1761 47.3885 99.1761ZM47.3942 97.75C47.9245 97.75 48.3639 97.6098 48.7124 97.3295C49.0608 97.0492 49.3184 96.6761 49.4851 96.2102C49.6555 95.7443 49.7408 95.2311 49.7408 94.6705C49.7408 94.1136 49.6555 93.6023 49.4851 93.1364C49.3184 92.6667 49.0608 92.2898 48.7124 92.0057C48.3639 91.7216 47.9245 91.5795 47.3942 91.5795C46.8601 91.5795 46.4169 91.7216 46.0646 92.0057C45.7161 92.2898 45.4567 92.6667 45.2862 93.1364C45.1196 93.6023 45.0362 94.1136 45.0362 94.6705C45.0362 95.2311 45.1196 95.7443 45.2862 96.2102C45.4567 96.6761 45.7161 97.0492 46.0646 97.3295C46.4169 97.6098 46.8601 97.75 47.3942 97.75ZM62.2464 87.3636H63.9964V95.6136C63.9964 96.3598 63.8487 96.9981 63.5533 97.5284C63.2616 98.0587 62.8506 98.464 62.3203 98.7443C61.79 99.0208 61.1688 99.1591 60.4567 99.1591C59.8014 99.1591 59.2124 99.0398 58.6896 98.8011C58.1707 98.5625 57.7597 98.2159 57.4567 97.7614C57.1574 97.303 57.0078 96.7462 57.0078 96.0909H58.7521C58.7521 96.4129 58.826 96.6913 58.9737 96.9261C59.1252 97.161 59.3317 97.3447 59.593 97.4773C59.8582 97.6061 60.1612 97.6705 60.5021 97.6705C60.8733 97.6705 61.1877 97.5928 61.4453 97.4375C61.7067 97.2784 61.9055 97.0455 62.0419 96.7386C62.1783 96.4318 62.2464 96.0568 62.2464 95.6136V87.3636ZM66.4155 99V90.2727H68.1143V99H66.4155ZM67.2734 88.9261C66.978 88.9261 66.7242 88.8277 66.5121 88.6307C66.3037 88.4299 66.1996 88.1913 66.1996 87.9148C66.1996 87.6345 66.3037 87.3958 66.5121 87.1989C66.7242 86.9981 66.978 86.8977 67.2734 86.8977C67.5689 86.8977 67.8208 86.9981 68.0291 87.1989C68.2412 87.3958 68.3473 87.6345 68.3473 87.9148C68.3473 88.1913 68.2412 88.4299 68.0291 88.6307C67.8208 88.8277 67.5689 88.9261 67.2734 88.9261ZM74.076 99.1761C73.2578 99.1761 72.5438 98.9886 71.9339 98.6136C71.3241 98.2386 70.8506 97.714 70.5135 97.0398C70.1764 96.3655 70.0078 95.5777 70.0078 94.6761C70.0078 93.7708 70.1764 92.9792 70.5135 92.3011C70.8506 91.6231 71.3241 91.0966 71.9339 90.7216C72.5438 90.3466 73.2578 90.1591 74.076 90.1591C74.8942 90.1591 75.6082 90.3466 76.218 90.7216C76.8279 91.0966 77.3014 91.6231 77.6385 92.3011C77.9756 92.9792 78.1442 93.7708 78.1442 94.6761C78.1442 95.5777 77.9756 96.3655 77.6385 97.0398C77.3014 97.714 76.8279 98.2386 76.218 98.6136C75.6082 98.9886 74.8942 99.1761 74.076 99.1761ZM74.0817 97.75C74.612 97.75 75.0514 97.6098 75.3999 97.3295C75.7483 97.0492 76.0059 96.6761 76.1726 96.2102C76.343 95.7443 76.4283 95.2311 76.4283 94.6705C76.4283 94.1136 76.343 93.6023 76.1726 93.1364C76.0059 92.6667 75.7483 92.2898 75.3999 92.0057C75.0514 91.7216 74.612 91.5795 74.0817 91.5795C73.5476 91.5795 73.1044 91.7216 72.7521 92.0057C72.4036 92.2898 72.1442 92.6667 71.9737 93.1364C71.8071 93.6023 71.7237 94.1136 71.7237 94.6705C71.7237 95.2311 71.8071 95.7443 71.9737 96.2102C72.1442 96.6761 72.4036 97.0492 72.7521 97.3295C73.1044 97.6098 73.5476 97.75 74.0817 97.75Z" fill="black"/>
</svg>
