<svg width="72" height="103" viewBox="0 0 72 103" fill="none" xmlns="http://www.w3.org/2000/svg">
<circle cx="36" cy="36" r="36" fill="#E8EBF7"/>
<g clip-path="url(#clip0_2073_751)">
<path d="M38.9542 26.0282L39.1777 19.3013C39.2284 17.7827 41.1194 17.646 42.5452 19.0579L49.1149 25.5626C50.5397 26.9746 50.4026 28.8471 48.8691 28.8974L42.0761 29.1197C40.6035 29.1679 38.9055 27.4865 38.9542 26.0282Z" fill="#1D3BC1"/>
<path d="M50.625 31.7505V47.5989C50.625 51.1338 47.7317 54 44.162 54H27.839C24.2693 54 21.375 51.1338 21.375 47.5989V24.4011C21.375 20.8652 24.2693 18 27.839 18H36.1412C36.0234 18.3952 35.9614 18.7995 35.9482 19.1957L35.7238 25.9227C35.6598 27.8395 36.6794 29.4315 37.6594 30.4019C38.6384 31.3714 40.246 32.3811 42.1827 32.3177L48.9757 32.0965C49.5252 32.0784 50.0888 31.9698 50.625 31.7505Z" fill="#1D3BC1"/>
</g>
<path d="M30.3558 37.1318H39.433M36.7593 37.6948C37.5567 39.6416 37.7302 43.5211 32.0447 43.4648L39.6442 47.546" stroke="#FEFEFE" stroke-width="3" stroke-linecap="round" stroke-linejoin="round"/>
<path d="M5.65341 99V87.3636H9.80114C10.7064 87.3636 11.4564 87.5284 12.0511 87.858C12.6458 88.1875 13.0909 88.6383 13.3864 89.2102C13.6818 89.7784 13.8295 90.4186 13.8295 91.1307C13.8295 91.8466 13.6799 92.4905 13.3807 93.0625C13.0852 93.6307 12.6383 94.0814 12.0398 94.4148C11.4451 94.7443 10.697 94.9091 9.79545 94.9091H6.94318V93.4205H9.63636C10.2083 93.4205 10.6723 93.322 11.0284 93.125C11.3845 92.9242 11.6458 92.6515 11.8125 92.3068C11.9792 91.9621 12.0625 91.5701 12.0625 91.1307C12.0625 90.6913 11.9792 90.3011 11.8125 89.9602C11.6458 89.6193 11.3826 89.3523 11.0227 89.1591C10.6667 88.9659 10.197 88.8693 9.61364 88.8693H7.40909V99H5.65341ZM18.2131 99.1932C17.66 99.1932 17.16 99.0909 16.7131 98.8864C16.2661 98.678 15.9119 98.3769 15.6506 97.983C15.393 97.589 15.2642 97.1061 15.2642 96.5341C15.2642 96.0417 15.3589 95.6364 15.5483 95.3182C15.7377 95 15.9934 94.7481 16.3153 94.5625C16.6373 94.3769 16.9972 94.2367 17.3949 94.142C17.7926 94.0473 18.1979 93.9754 18.6108 93.9261C19.1335 93.8655 19.5578 93.8163 19.8835 93.7784C20.2093 93.7367 20.446 93.6705 20.5938 93.5795C20.7415 93.4886 20.8153 93.3409 20.8153 93.1364V93.0966C20.8153 92.6004 20.6752 92.2159 20.3949 91.9432C20.1184 91.6705 19.7055 91.5341 19.1562 91.5341C18.5843 91.5341 18.1335 91.661 17.804 91.9148C17.4782 92.1648 17.2528 92.4432 17.1278 92.75L15.5312 92.3864C15.7206 91.8561 15.9972 91.428 16.3608 91.1023C16.7282 90.7727 17.1506 90.5341 17.6278 90.3864C18.1051 90.2348 18.607 90.1591 19.1335 90.1591C19.482 90.1591 19.8513 90.2008 20.2415 90.2841C20.6354 90.3636 21.0028 90.5114 21.3438 90.7273C21.6884 90.9432 21.9706 91.2519 22.1903 91.6534C22.41 92.0511 22.5199 92.5682 22.5199 93.2045V99H20.8608V97.8068H20.7926C20.6828 98.0265 20.518 98.2424 20.2983 98.4545C20.0786 98.6667 19.7964 98.8428 19.4517 98.983C19.107 99.1231 18.6941 99.1932 18.2131 99.1932ZM18.5824 97.8295C19.0521 97.8295 19.4536 97.7367 19.7869 97.5511C20.1241 97.3655 20.3797 97.1231 20.554 96.8239C20.732 96.5208 20.821 96.197 20.821 95.8523V94.7273C20.7604 94.7879 20.643 94.8447 20.4688 94.8977C20.2983 94.947 20.1032 94.9905 19.8835 95.0284C19.6638 95.0625 19.4498 95.0947 19.2415 95.125C19.0331 95.1515 18.8589 95.1742 18.7188 95.1932C18.3892 95.2348 18.0881 95.3049 17.8153 95.4034C17.5464 95.5019 17.3305 95.6439 17.1676 95.8295C17.0085 96.0114 16.929 96.2538 16.929 96.5568C16.929 96.9773 17.0843 97.2955 17.3949 97.5114C17.7055 97.7235 18.1013 97.8295 18.5824 97.8295ZM25.544 102.273C25.2902 102.273 25.0592 102.252 24.8509 102.21C24.6425 102.172 24.4872 102.131 24.3849 102.085L24.794 100.693C25.1046 100.777 25.3812 100.813 25.6236 100.801C25.866 100.79 26.08 100.699 26.2656 100.528C26.455 100.358 26.6217 100.08 26.7656 99.6932L26.9759 99.1136L23.7827 90.2727H25.6009L27.8111 97.0455H27.902L30.1122 90.2727H31.9361L28.3395 100.165C28.1728 100.619 27.9607 101.004 27.7031 101.318C27.4455 101.636 27.1387 101.875 26.7827 102.034C26.4266 102.193 26.0137 102.273 25.544 102.273ZM37.9034 99V87.3636H42.1648C42.9905 87.3636 43.6742 87.5 44.2159 87.7727C44.7576 88.0417 45.1629 88.4072 45.4318 88.8693C45.7008 89.3277 45.8352 89.8447 45.8352 90.4205C45.8352 90.9053 45.7462 91.3144 45.5682 91.6477C45.3902 91.9773 45.1515 92.2424 44.8523 92.4432C44.5568 92.6402 44.2311 92.7841 43.875 92.875V92.9886C44.2614 93.0076 44.6383 93.1326 45.0057 93.3636C45.3769 93.5909 45.6837 93.9148 45.9261 94.3352C46.1686 94.7557 46.2898 95.267 46.2898 95.8693C46.2898 96.464 46.1496 96.9981 45.8693 97.4716C45.5928 97.9413 45.1648 98.3144 44.5852 98.5909C44.0057 98.8636 43.2652 99 42.3636 99H37.9034ZM39.6591 97.4943H42.1932C43.0341 97.4943 43.6364 97.3314 44 97.0057C44.3636 96.6799 44.5455 96.2727 44.5455 95.7841C44.5455 95.4167 44.4527 95.0795 44.267 94.7727C44.0814 94.4659 43.8163 94.2216 43.4716 94.0398C43.1307 93.858 42.7254 93.767 42.2557 93.767H39.6591V97.4943ZM39.6591 92.3977H42.0114C42.4053 92.3977 42.7595 92.322 43.0739 92.1705C43.392 92.0189 43.6439 91.8068 43.8295 91.5341C44.0189 91.2576 44.1136 90.9318 44.1136 90.5568C44.1136 90.0758 43.9451 89.6723 43.608 89.3466C43.2708 89.0208 42.7538 88.858 42.0568 88.858H39.6591V92.3977ZM48.2358 99V90.2727H49.9347V99H48.2358ZM49.0938 88.9261C48.7983 88.9261 48.5445 88.8277 48.3324 88.6307C48.1241 88.4299 48.0199 88.1913 48.0199 87.9148C48.0199 87.6345 48.1241 87.3958 48.3324 87.1989C48.5445 86.9981 48.7983 86.8977 49.0938 86.8977C49.3892 86.8977 49.6411 86.9981 49.8494 87.1989C50.0616 87.3958 50.1676 87.6345 50.1676 87.9148C50.1676 88.1913 50.0616 88.4299 49.8494 88.6307C49.6411 88.8277 49.3892 88.9261 49.0938 88.9261ZM53.919 87.3636V99H52.2202V87.3636H53.919ZM57.9034 87.3636V99H56.2045V87.3636H57.9034ZM66.7287 92.4034L65.1889 92.6761C65.1245 92.4792 65.0223 92.2917 64.8821 92.1136C64.7457 91.9356 64.5601 91.7898 64.3253 91.6761C64.0904 91.5625 63.7969 91.5057 63.4446 91.5057C62.9635 91.5057 62.562 91.6136 62.2401 91.8295C61.9181 92.0417 61.7571 92.3163 61.7571 92.6534C61.7571 92.9451 61.8651 93.1799 62.081 93.358C62.2969 93.536 62.6454 93.6818 63.1264 93.7955L64.5128 94.1136C65.3158 94.2992 65.9143 94.5852 66.3082 94.9716C66.7022 95.358 66.8991 95.8598 66.8991 96.4773C66.8991 97 66.7476 97.4659 66.4446 97.875C66.1454 98.2803 65.7268 98.5985 65.1889 98.8295C64.6548 99.0606 64.0355 99.1761 63.331 99.1761C62.3537 99.1761 61.5563 98.9678 60.9389 98.5511C60.3215 98.1307 59.9427 97.5341 59.8026 96.7614L61.4446 96.5114C61.5469 96.9394 61.7571 97.2633 62.0753 97.483C62.3935 97.6989 62.8082 97.8068 63.3196 97.8068C63.8764 97.8068 64.3215 97.6913 64.6548 97.4602C64.9882 97.2254 65.1548 96.9394 65.1548 96.6023C65.1548 96.3295 65.0526 96.1004 64.848 95.9148C64.6473 95.7292 64.3385 95.589 63.9219 95.4943L62.4446 95.1705C61.6302 94.9848 61.0279 94.6894 60.6378 94.2841C60.2514 93.8788 60.0582 93.3655 60.0582 92.7443C60.0582 92.2292 60.2022 91.7784 60.4901 91.392C60.7779 91.0057 61.1757 90.7045 61.6832 90.4886C62.1908 90.2689 62.7723 90.1591 63.4276 90.1591C64.3707 90.1591 65.1132 90.3636 65.6548 90.7727C66.1965 91.178 66.5545 91.7216 66.7287 92.4034Z" fill="black"/>
<defs>
<clipPath id="clip0_2073_751">
<rect width="29.25" height="36" fill="white" transform="translate(21.375 18)"/>
</clipPath>
</defs>
</svg>
