<svg width="88" height="103" viewBox="0 0 88 103" fill="none" xmlns="http://www.w3.org/2000/svg">
<circle cx="44" cy="36" r="36" fill="#E8EBF7"/>
<path d="M30.6354 30.293C30.2206 30.9382 30 31.6891 30 32.4563V49.7414C30 52.0934 32.1233 54 34.7425 54H53.2575C55.8767 54 58 52.0934 58 49.7414V22.2586C58 19.9066 55.8767 18 53.2575 18H39.6311C38.9507 18 38.3169 18.346 37.9489 18.9184L30.6354 30.293Z" fill="#1D3BC1"/>
<rect x="34" y="36" width="7.1361" height="5.52866" fill="#FEFEFE"/>
<path d="M34 44.4713H44.892V50H36C34.8954 50 34 49.1045 34 48V44.4713Z" fill="#FEFEFE"/>
<path d="M47.7089 44.4713H53.9999V48C53.9999 49.1045 53.1045 50 51.9999 50H47.7089V44.4713Z" fill="#FEFEFE"/>
<rect x="43.9297" y="36" width="10.0703" height="5.52866" fill="#FEFEFE"/>
<path d="M9.54403 91.0398C9.43419 90.6951 9.28646 90.3864 9.10085 90.1136C8.91903 89.8371 8.70123 89.6023 8.44744 89.4091C8.19366 89.2121 7.90388 89.0625 7.57812 88.9602C7.25616 88.858 6.90199 88.8068 6.51562 88.8068C5.86032 88.8068 5.26941 88.9754 4.7429 89.3125C4.21638 89.6496 3.79972 90.1439 3.4929 90.7955C3.18987 91.4432 3.03835 92.2367 3.03835 93.1761C3.03835 94.1193 3.19176 94.9167 3.49858 95.5682C3.8054 96.2197 4.22585 96.714 4.75994 97.0511C5.29403 97.3883 5.90199 97.5568 6.58381 97.5568C7.21638 97.5568 7.76752 97.428 8.23722 97.1705C8.7107 96.9129 9.07623 96.5492 9.33381 96.0795C9.59517 95.6061 9.72585 95.0492 9.72585 94.4091L10.1804 94.4943H6.85085V93.0455H11.4247V94.3693C11.4247 95.3466 11.2164 96.1951 10.7997 96.9148C10.3868 97.6307 9.81487 98.1837 9.08381 98.5739C8.35653 98.964 7.5232 99.1591 6.58381 99.1591C5.53078 99.1591 4.60653 98.9167 3.81108 98.4318C3.01941 97.947 2.40199 97.2595 1.95881 96.3693C1.51563 95.4754 1.29403 94.4148 1.29403 93.1875C1.29403 92.2595 1.42282 91.4261 1.6804 90.6875C1.93797 89.9489 2.29972 89.322 2.76562 88.8068C3.23532 88.2879 3.78646 87.892 4.41903 87.6193C5.0554 87.3428 5.75047 87.2045 6.50426 87.2045C7.13305 87.2045 7.71828 87.2973 8.25994 87.483C8.8054 87.6686 9.29025 87.9318 9.71449 88.2727C10.1425 88.6136 10.4967 89.0189 10.777 89.4886C11.0573 89.9545 11.2467 90.4716 11.3452 91.0398H9.54403ZM17.2784 99.1761C16.4186 99.1761 15.678 98.9924 15.0568 98.625C14.4394 98.2538 13.9621 97.733 13.625 97.0625C13.2917 96.3883 13.125 95.5985 13.125 94.6932C13.125 93.7992 13.2917 93.0114 13.625 92.3295C13.9621 91.6477 14.4318 91.1155 15.0341 90.733C15.6402 90.3504 16.3485 90.1591 17.1591 90.1591C17.6515 90.1591 18.1288 90.2405 18.5909 90.4034C19.053 90.5663 19.4678 90.822 19.8352 91.1705C20.2027 91.5189 20.4924 91.9716 20.7045 92.5284C20.9167 93.0814 21.0227 93.7538 21.0227 94.5455V95.1477H14.0852V93.875H19.358C19.358 93.428 19.267 93.0322 19.0852 92.6875C18.9034 92.339 18.6477 92.0644 18.3182 91.8636C17.9924 91.6629 17.6098 91.5625 17.1705 91.5625C16.6932 91.5625 16.2765 91.6799 15.9205 91.9148C15.5682 92.1458 15.2955 92.4489 15.1023 92.8239C14.9129 93.1951 14.8182 93.5985 14.8182 94.0341V95.0284C14.8182 95.6117 14.9205 96.108 15.125 96.517C15.3333 96.9261 15.6231 97.2386 15.9943 97.4545C16.3655 97.6667 16.7992 97.7727 17.2955 97.7727C17.6174 97.7727 17.911 97.7273 18.1761 97.6364C18.4413 97.5417 18.6705 97.4015 18.8636 97.2159C19.0568 97.0303 19.2045 96.8011 19.3068 96.5284L20.9148 96.8182C20.786 97.2917 20.5549 97.7064 20.2216 98.0625C19.892 98.4148 19.4773 98.6894 18.9773 98.8864C18.4811 99.0795 17.9148 99.1761 17.2784 99.1761ZM26.9815 90.2727V91.6364H22.2145V90.2727H26.9815ZM23.4929 88.1818H25.1918V96.4375C25.1918 96.767 25.241 97.0152 25.3395 97.1818C25.438 97.3447 25.5649 97.4564 25.7202 97.517C25.8793 97.5739 26.0516 97.6023 26.2372 97.6023C26.3736 97.6023 26.4929 97.5928 26.5952 97.5739C26.6974 97.5549 26.777 97.5398 26.8338 97.5284L27.1406 98.9318C27.0421 98.9697 26.902 99.0076 26.7202 99.0455C26.5384 99.0871 26.3111 99.1098 26.0384 99.1136C25.5914 99.1212 25.1747 99.0417 24.7884 98.875C24.402 98.7083 24.0895 98.4508 23.8509 98.1023C23.6122 97.7538 23.4929 97.3163 23.4929 96.7898V88.1818ZM37.7543 87.3636H39.5043V95.6136C39.5043 96.3598 39.3565 96.9981 39.0611 97.5284C38.7694 98.0587 38.3584 98.464 37.8281 98.7443C37.2978 99.0208 36.6766 99.1591 35.9645 99.1591C35.3092 99.1591 34.7202 99.0398 34.1974 98.8011C33.6785 98.5625 33.2675 98.2159 32.9645 97.7614C32.6652 97.303 32.5156 96.7462 32.5156 96.0909H34.2599C34.2599 96.4129 34.3338 96.6913 34.4815 96.9261C34.633 97.161 34.8395 97.3447 35.1009 97.4773C35.366 97.6061 35.669 97.6705 36.0099 97.6705C36.3812 97.6705 36.6955 97.5928 36.9531 97.4375C37.2145 97.2784 37.4134 97.0455 37.5497 96.7386C37.6861 96.4318 37.7543 96.0568 37.7543 95.6136V87.3636ZM41.9233 99V90.2727H43.6222V99H41.9233ZM42.7812 88.9261C42.4858 88.9261 42.232 88.8277 42.0199 88.6307C41.8116 88.4299 41.7074 88.1913 41.7074 87.9148C41.7074 87.6345 41.8116 87.3958 42.0199 87.1989C42.232 86.9981 42.4858 86.8977 42.7812 86.8977C43.0767 86.8977 43.3286 86.9981 43.5369 87.1989C43.7491 87.3958 43.8551 87.6345 43.8551 87.9148C43.8551 88.1913 43.7491 88.4299 43.5369 88.6307C43.3286 88.8277 43.0767 88.9261 42.7812 88.9261ZM49.5838 99.1761C48.7656 99.1761 48.0516 98.9886 47.4418 98.6136C46.8319 98.2386 46.3584 97.714 46.0213 97.0398C45.6842 96.3655 45.5156 95.5777 45.5156 94.6761C45.5156 93.7708 45.6842 92.9792 46.0213 92.3011C46.3584 91.6231 46.8319 91.0966 47.4418 90.7216C48.0516 90.3466 48.7656 90.1591 49.5838 90.1591C50.402 90.1591 51.116 90.3466 51.7259 90.7216C52.3357 91.0966 52.8092 91.6231 53.1463 92.3011C53.4834 92.9792 53.652 93.7708 53.652 94.6761C53.652 95.5777 53.4834 96.3655 53.1463 97.0398C52.8092 97.714 52.3357 98.2386 51.7259 98.6136C51.116 98.9886 50.402 99.1761 49.5838 99.1761ZM49.5895 97.75C50.1198 97.75 50.5592 97.6098 50.9077 97.3295C51.2562 97.0492 51.5137 96.6761 51.6804 96.2102C51.8509 95.7443 51.9361 95.2311 51.9361 94.6705C51.9361 94.1136 51.8509 93.6023 51.6804 93.1364C51.5137 92.6667 51.2562 92.2898 50.9077 92.0057C50.5592 91.7216 50.1198 91.5795 49.5895 91.5795C49.0554 91.5795 48.6122 91.7216 48.2599 92.0057C47.9115 92.2898 47.652 92.6667 47.4815 93.1364C47.3149 93.6023 47.2315 94.1136 47.2315 94.6705C47.2315 95.2311 47.3149 95.7443 47.4815 96.2102C47.652 96.6761 47.9115 97.0492 48.2599 97.3295C48.6122 97.6098 49.0554 97.75 49.5895 97.75ZM66.2656 90.4205C66.205 89.8826 65.955 89.4659 65.5156 89.1705C65.0762 88.8712 64.5232 88.7216 63.8565 88.7216C63.3793 88.7216 62.9664 88.7973 62.6179 88.9489C62.2694 89.0966 61.9986 89.3011 61.8054 89.5625C61.616 89.8201 61.5213 90.1136 61.5213 90.4432C61.5213 90.7197 61.5857 90.9583 61.7145 91.1591C61.8471 91.3598 62.0194 91.5284 62.2315 91.6648C62.4474 91.7973 62.6785 91.9091 62.9247 92C63.1709 92.0871 63.4077 92.1591 63.6349 92.2159L64.7713 92.5114C65.1425 92.6023 65.5232 92.7254 65.9134 92.8807C66.3035 93.036 66.6652 93.2405 66.9986 93.4943C67.3319 93.7481 67.6009 94.0625 67.8054 94.4375C68.0137 94.8125 68.1179 95.2614 68.1179 95.7841C68.1179 96.4432 67.9474 97.0284 67.6065 97.5398C67.2694 98.0511 66.7789 98.4545 66.1349 98.75C65.4948 99.0455 64.7202 99.1932 63.8111 99.1932C62.9399 99.1932 62.1861 99.0549 61.5497 98.7784C60.9134 98.5019 60.4152 98.1098 60.0554 97.6023C59.6955 97.0909 59.4967 96.4848 59.4588 95.7841H61.2202C61.2543 96.2045 61.3906 96.5549 61.6293 96.8352C61.8717 97.1117 62.1804 97.3182 62.5554 97.4545C62.9342 97.5871 63.349 97.6534 63.7997 97.6534C64.2959 97.6534 64.7372 97.5758 65.1236 97.4205C65.5137 97.2614 65.8205 97.0417 66.044 96.7614C66.2675 96.4773 66.3793 96.1458 66.3793 95.767C66.3793 95.4223 66.2808 95.1402 66.0838 94.9205C65.8906 94.7008 65.6274 94.5189 65.294 94.375C64.9645 94.2311 64.5914 94.1042 64.1747 93.9943L62.7997 93.6193C61.8679 93.3655 61.1293 92.9924 60.5838 92.5C60.0421 92.0076 59.7713 91.3561 59.7713 90.5455C59.7713 89.875 59.9531 89.2898 60.3168 88.7898C60.6804 88.2898 61.1728 87.9015 61.794 87.625C62.4152 87.3447 63.116 87.2045 63.8963 87.2045C64.6842 87.2045 65.3793 87.3428 65.9815 87.6193C66.5876 87.8958 67.0649 88.2765 67.4134 88.7614C67.7618 89.2424 67.9437 89.7955 67.9588 90.4205H66.2656ZM71.9716 87.3636V99H70.2159V87.3636H71.9716ZM74.5284 87.3636H76.6591L80.3636 96.4091H80.5L84.2045 87.3636H86.3352V99H84.6648V90.5795H84.5568L81.125 98.983H79.7386L76.3068 90.5739H76.1989V99H74.5284V87.3636Z" fill="black"/>
</svg>
