<svg width="73" height="103" viewBox="0 0 73 103" fill="none" xmlns="http://www.w3.org/2000/svg">
<circle cx="36.5" cy="36" r="36" fill="#E8EBF7"/>
<path fill-rule="evenodd" clip-rule="evenodd" d="M54.5 33.3123C52.9397 34.4397 51.0228 35.1042 48.9506 35.1042C43.712 35.1042 39.4653 30.8574 39.4653 25.6188C39.4653 25.0532 39.5148 24.4992 39.6097 23.9608H24.5C21.1863 23.9608 18.5 26.6471 18.5 29.9608V44.4314C18.5 47.7451 21.1863 50.4314 24.5 50.4314H48.5C51.8137 50.4314 54.5 47.7451 54.5 44.4314V33.3123Z" fill="#1D3BC1"/>
<path d="M53.0009 25.6189L44.9002 25.6189" stroke="#1D3BC1" stroke-width="3" stroke-linecap="round"/>
<path d="M48.9507 21.5685V29.6692" stroke="#1D3BC1" stroke-width="3" stroke-linecap="round"/>
<ellipse cx="30.7045" cy="32.971" rx="2.74517" ry="2.86525" fill="#FEFEFE"/>
<path d="M30.7046 36.9823C27.8761 36.9823 25.4639 39.2744 24.53 42.493C24.0682 44.0842 25.4594 45.4548 27.1162 45.4548L34.293 45.4548C35.9499 45.4548 37.341 44.0842 36.8793 42.493C35.9453 39.2744 33.5331 36.9823 30.7046 36.9823Z" fill="#FEFEFE"/>
<path d="M1.27841 99V87.3636H5.42614C6.32765 87.3636 7.07576 87.5189 7.67045 87.8295C8.26894 88.1402 8.71591 88.5701 9.01136 89.1193C9.30682 89.6648 9.45455 90.2955 9.45455 91.0114C9.45455 91.7235 9.30492 92.3504 9.00568 92.892C8.71023 93.4299 8.26326 93.8485 7.66477 94.1477C7.07008 94.447 6.32197 94.5966 5.42045 94.5966H2.27841V93.0852H5.26136C5.82955 93.0852 6.29167 93.0038 6.64773 92.8409C7.00758 92.678 7.27083 92.4413 7.4375 92.1307C7.60417 91.8201 7.6875 91.447 7.6875 91.0114C7.6875 90.572 7.60227 90.1913 7.43182 89.8693C7.26515 89.5473 7.00189 89.3011 6.64205 89.1307C6.28598 88.9564 5.81818 88.8693 5.23864 88.8693H3.03409V99H1.27841ZM7.02273 93.75L9.89773 99H7.89773L5.07955 93.75H7.02273ZM15.1065 99.1761C14.2467 99.1761 13.5062 98.9924 12.8849 98.625C12.2675 98.2538 11.7902 97.733 11.4531 97.0625C11.1198 96.3883 10.9531 95.5985 10.9531 94.6932C10.9531 93.7992 11.1198 93.0114 11.4531 92.3295C11.7902 91.6477 12.2599 91.1155 12.8622 90.733C13.4683 90.3504 14.1766 90.1591 14.9872 90.1591C15.4796 90.1591 15.9569 90.2405 16.419 90.4034C16.8812 90.5663 17.2959 90.822 17.6634 91.1705C18.0308 91.5189 18.3205 91.9716 18.5327 92.5284C18.7448 93.0814 18.8509 93.7538 18.8509 94.5455V95.1477H11.9134V93.875H17.1861C17.1861 93.428 17.0952 93.0322 16.9134 92.6875C16.7315 92.339 16.4759 92.0644 16.1463 91.8636C15.8205 91.6629 15.438 91.5625 14.9986 91.5625C14.5213 91.5625 14.1046 91.6799 13.7486 91.9148C13.3963 92.1458 13.1236 92.4489 12.9304 92.8239C12.741 93.1951 12.6463 93.5985 12.6463 94.0341V95.0284C12.6463 95.6117 12.7486 96.108 12.9531 96.517C13.1615 96.9261 13.4512 97.2386 13.8224 97.4545C14.1937 97.6667 14.6274 97.7727 15.1236 97.7727C15.4455 97.7727 15.7391 97.7273 16.0043 97.6364C16.2694 97.5417 16.4986 97.4015 16.6918 97.2159C16.8849 97.0303 17.0327 96.8011 17.1349 96.5284L18.7429 96.8182C18.6141 97.2917 18.383 97.7064 18.0497 98.0625C17.7202 98.4148 17.3054 98.6894 16.8054 98.8864C16.3092 99.0795 15.7429 99.1761 15.1065 99.1761ZM24.4119 99.1761C23.5672 99.1761 22.84 98.9848 22.2301 98.6023C21.6241 98.2159 21.1581 97.6837 20.8324 97.0057C20.5066 96.3277 20.3438 95.5511 20.3438 94.6761C20.3438 93.7898 20.5104 93.0076 20.8438 92.3295C21.1771 91.6477 21.6468 91.1155 22.2528 90.733C22.8589 90.3504 23.5729 90.1591 24.3949 90.1591C25.0578 90.1591 25.6487 90.2822 26.1676 90.5284C26.6866 90.7708 27.1051 91.1117 27.4233 91.5511C27.7453 91.9905 27.9366 92.5038 27.9972 93.0909H26.3438C26.2528 92.6818 26.0445 92.3295 25.7188 92.0341C25.3968 91.7386 24.965 91.5909 24.4233 91.5909C23.9498 91.5909 23.535 91.7159 23.179 91.9659C22.8267 92.2121 22.5521 92.5644 22.3551 93.0227C22.1581 93.4773 22.0597 94.0152 22.0597 94.6364C22.0597 95.2727 22.1563 95.822 22.3494 96.2841C22.5426 96.7462 22.8153 97.1042 23.1676 97.358C23.5237 97.6117 23.9422 97.7386 24.4233 97.7386C24.7453 97.7386 25.0369 97.6799 25.2983 97.5625C25.5634 97.4413 25.785 97.2689 25.9631 97.0455C26.1449 96.822 26.2718 96.553 26.3438 96.2386H27.9972C27.9366 96.803 27.7528 97.3068 27.446 97.75C27.1392 98.1932 26.7282 98.5417 26.2131 98.7955C25.7017 99.0492 25.1013 99.1761 24.4119 99.1761ZM31.5128 93.8182V99H29.8139V87.3636H31.4901V91.6932H31.598C31.8026 91.2235 32.1151 90.8504 32.5355 90.5739C32.956 90.2973 33.5052 90.1591 34.1832 90.1591C34.7817 90.1591 35.3045 90.2822 35.7514 90.5284C36.2022 90.7746 36.5507 91.142 36.7969 91.6307C37.0469 92.1155 37.1719 92.7216 37.1719 93.4489V99H35.473V93.6534C35.473 93.0133 35.3082 92.517 34.9787 92.1648C34.6491 91.8087 34.1908 91.6307 33.6037 91.6307C33.2022 91.6307 32.8423 91.7159 32.5241 91.8864C32.2098 92.0568 31.9616 92.3068 31.7798 92.6364C31.6018 92.9621 31.5128 93.3561 31.5128 93.8182ZM41.9787 99.1932C41.4257 99.1932 40.9257 99.0909 40.4787 98.8864C40.0317 98.678 39.6776 98.3769 39.4162 97.983C39.1586 97.589 39.0298 97.1061 39.0298 96.5341C39.0298 96.0417 39.1245 95.6364 39.3139 95.3182C39.5033 95 39.759 94.7481 40.081 94.5625C40.4029 94.3769 40.7628 94.2367 41.1605 94.142C41.5582 94.0473 41.9635 93.9754 42.3764 93.9261C42.8991 93.8655 43.3234 93.8163 43.6491 93.7784C43.9749 93.7367 44.2116 93.6705 44.3594 93.5795C44.5071 93.4886 44.581 93.3409 44.581 93.1364V93.0966C44.581 92.6004 44.4408 92.2159 44.1605 91.9432C43.884 91.6705 43.4711 91.5341 42.9219 91.5341C42.3499 91.5341 41.8991 91.661 41.5696 91.9148C41.2438 92.1648 41.0185 92.4432 40.8935 92.75L39.2969 92.3864C39.4863 91.8561 39.7628 91.428 40.1264 91.1023C40.4938 90.7727 40.9162 90.5341 41.3935 90.3864C41.8707 90.2348 42.3726 90.1591 42.8991 90.1591C43.2476 90.1591 43.617 90.2008 44.0071 90.2841C44.401 90.3636 44.7685 90.5114 45.1094 90.7273C45.4541 90.9432 45.7363 91.2519 45.956 91.6534C46.1757 92.0511 46.2855 92.5682 46.2855 93.2045V99H44.6264V97.8068H44.5582C44.4484 98.0265 44.2836 98.2424 44.0639 98.4545C43.8442 98.6667 43.562 98.8428 43.2173 98.983C42.8726 99.1231 42.4598 99.1932 41.9787 99.1932ZM42.348 97.8295C42.8177 97.8295 43.2192 97.7367 43.5526 97.5511C43.8897 97.3655 44.1454 97.1231 44.3196 96.8239C44.4976 96.5208 44.5866 96.197 44.5866 95.8523V94.7273C44.526 94.7879 44.4086 94.8447 44.2344 94.8977C44.0639 94.947 43.8688 94.9905 43.6491 95.0284C43.4295 95.0625 43.2154 95.0947 43.0071 95.125C42.7988 95.1515 42.6245 95.1742 42.4844 95.1932C42.1548 95.2348 41.8537 95.3049 41.581 95.4034C41.312 95.5019 41.0961 95.6439 40.9332 95.8295C40.7741 96.0114 40.6946 96.2538 40.6946 96.5568C40.6946 96.9773 40.8499 97.2955 41.1605 97.5114C41.4711 97.7235 41.867 97.8295 42.348 97.8295ZM48.5483 99V90.2727H50.1903V91.6591H50.2812C50.4403 91.1894 50.7206 90.8201 51.1222 90.5511C51.5275 90.2784 51.9858 90.142 52.4972 90.142C52.6032 90.142 52.7282 90.1458 52.8722 90.1534C53.0199 90.161 53.1354 90.1705 53.2188 90.1818V91.8068C53.1506 91.7879 53.0294 91.767 52.8551 91.7443C52.6809 91.7178 52.5066 91.7045 52.3324 91.7045C51.9309 91.7045 51.5729 91.7898 51.2585 91.9602C50.9479 92.1269 50.7017 92.3598 50.5199 92.6591C50.3381 92.9545 50.2472 93.2917 50.2472 93.6705V99H48.5483ZM58.0355 102.455C57.3423 102.455 56.7457 102.364 56.2457 102.182C55.7495 102 55.3442 101.759 55.0298 101.46C54.7154 101.161 54.4806 100.833 54.3253 100.477L55.7855 99.875C55.8878 100.042 56.0241 100.218 56.1946 100.403C56.3688 100.593 56.6037 100.754 56.8991 100.886C57.1984 101.019 57.5829 101.085 58.0526 101.085C58.6965 101.085 59.2287 100.928 59.6491 100.614C60.0696 100.303 60.2798 99.8068 60.2798 99.125V97.4091H60.1719C60.0696 97.5947 59.9219 97.8011 59.7287 98.0284C59.5393 98.2557 59.2779 98.4527 58.9446 98.6193C58.6113 98.786 58.1776 98.8693 57.6435 98.8693C56.9541 98.8693 56.3329 98.7083 55.7798 98.3864C55.2306 98.0606 54.795 97.5814 54.473 96.9489C54.1548 96.3125 53.9957 95.5303 53.9957 94.6023C53.9957 93.6742 54.1529 92.8788 54.4673 92.2159C54.7855 91.553 55.2211 91.0455 55.7741 90.6932C56.3272 90.3371 56.9541 90.1591 57.6548 90.1591C58.1965 90.1591 58.634 90.25 58.9673 90.4318C59.3007 90.6098 59.5601 90.8182 59.7457 91.0568C59.9351 91.2955 60.081 91.5057 60.1832 91.6875H60.3082V90.2727H61.973V99.1932C61.973 99.9432 61.7988 100.559 61.4503 101.04C61.1018 101.521 60.6302 101.877 60.0355 102.108C59.4446 102.339 58.7779 102.455 58.0355 102.455ZM58.0185 97.4602C58.5071 97.4602 58.92 97.3466 59.2571 97.1193C59.598 96.8883 59.8556 96.5587 60.0298 96.1307C60.2079 95.6989 60.2969 95.1818 60.2969 94.5795C60.2969 93.9924 60.2098 93.4754 60.0355 93.0284C59.8613 92.5814 59.6056 92.233 59.2685 91.983C58.9313 91.7292 58.5147 91.6023 58.0185 91.6023C57.5071 91.6023 57.081 91.7348 56.7401 92C56.3991 92.2614 56.1416 92.6174 55.9673 93.0682C55.7969 93.5189 55.7116 94.0227 55.7116 94.5795C55.7116 95.1515 55.7988 95.6534 55.973 96.0852C56.1473 96.517 56.4048 96.8542 56.7457 97.0966C57.0904 97.339 57.5147 97.4602 58.0185 97.4602ZM68.0128 99.1761C67.1529 99.1761 66.4124 98.9924 65.7912 98.625C65.1738 98.2538 64.6965 97.733 64.3594 97.0625C64.026 96.3883 63.8594 95.5985 63.8594 94.6932C63.8594 93.7992 64.026 93.0114 64.3594 92.3295C64.6965 91.6477 65.1662 91.1155 65.7685 90.733C66.3745 90.3504 67.0829 90.1591 67.8935 90.1591C68.3859 90.1591 68.8632 90.2405 69.3253 90.4034C69.7874 90.5663 70.2022 90.822 70.5696 91.1705C70.937 91.5189 71.2268 91.9716 71.4389 92.5284C71.651 93.0814 71.7571 93.7538 71.7571 94.5455V95.1477H64.8196V93.875H70.0923C70.0923 93.428 70.0014 93.0322 69.8196 92.6875C69.6378 92.339 69.3821 92.0644 69.0526 91.8636C68.7268 91.6629 68.3442 91.5625 67.9048 91.5625C67.4276 91.5625 67.0109 91.6799 66.6548 91.9148C66.3026 92.1458 66.0298 92.4489 65.8366 92.8239C65.6473 93.1951 65.5526 93.5985 65.5526 94.0341V95.0284C65.5526 95.6117 65.6548 96.108 65.8594 96.517C66.0677 96.9261 66.3575 97.2386 66.7287 97.4545C67.0999 97.6667 67.5336 97.7727 68.0298 97.7727C68.3518 97.7727 68.6454 97.7273 68.9105 97.6364C69.1757 97.5417 69.4048 97.4015 69.598 97.2159C69.7912 97.0303 69.9389 96.8011 70.0412 96.5284L71.6491 96.8182C71.5204 97.2917 71.2893 97.7064 70.956 98.0625C70.6264 98.4148 70.2116 98.6894 69.7116 98.8864C69.2154 99.0795 68.6491 99.1761 68.0128 99.1761Z" fill="black"/>
</svg>
