<svg width="72" height="103" viewBox="0 0 72 103" fill="none" xmlns="http://www.w3.org/2000/svg">
<circle cx="36" cy="36" r="36" fill="#E8EBF7"/>
<mask id="mask0_2073_791" style="mask-type:alpha" maskUnits="userSpaceOnUse" x="16" y="16" width="40" height="40">
<rect x="16.1813" y="16.1813" width="39.6374" height="39.6374" fill="#D9D9D9"/>
</mask>
<g mask="url(#mask0_2073_791)">
<path d="M36 52.5156L35.5871 47.5609H35.1742C31.2656 47.5609 27.9487 46.1984 25.2236 43.4733C22.4985 40.7482 21.136 37.4313 21.136 33.5226C21.136 29.6139 22.4985 26.2971 25.2236 23.572C27.9487 20.8469 31.2656 19.4844 35.1742 19.4844C37.1286 19.4844 38.9519 19.8488 40.6442 20.5777C42.3376 21.3077 43.8246 22.3124 45.1051 23.5918C46.3845 24.8723 47.3886 26.3587 48.1175 28.051C48.8475 29.7444 49.2125 31.5683 49.2125 33.5226C49.2125 37.7066 47.9601 41.4567 45.4552 44.7731C42.9503 48.0905 39.7986 50.6713 36 52.5156ZM35.133 42.5649C35.6009 42.5649 36 42.3998 36.3303 42.0695C36.6607 41.7391 36.8258 41.34 36.8258 40.8721C36.8258 40.4041 36.6607 40.005 36.3303 39.6747C36 39.3444 35.6009 39.1792 35.133 39.1792C34.665 39.1792 34.2659 39.3444 33.9356 39.6747C33.6053 40.005 33.4401 40.4041 33.4401 40.8721C33.4401 41.34 33.6053 41.7391 33.9356 42.0695C34.2659 42.3998 34.665 42.5649 35.133 42.5649ZM35.1742 37.3212C35.477 37.3212 35.7523 37.2111 36 36.9909C36.2478 36.7707 36.4129 36.4679 36.4955 36.0826C36.5505 35.7247 36.7019 35.401 36.9497 35.1114C37.1974 34.823 37.6241 34.3759 38.2296 33.7704C38.7251 33.2749 39.138 32.7381 39.4683 32.1601C39.7986 31.5821 39.9638 30.9627 39.9638 30.3021C39.9638 28.8983 39.4892 27.8451 38.5401 27.1427C37.5899 26.4413 36.468 26.0906 35.1742 26.0906C34.2108 26.0906 33.3785 26.3108 32.6771 26.7512C31.9746 27.1917 31.4032 27.7422 30.9628 28.4028C30.7701 28.7056 30.7354 29.0221 30.8587 29.3524C30.9831 29.6828 31.238 29.9167 31.6234 30.0544C31.8987 30.1645 32.1739 30.1645 32.4492 30.0544C32.7244 29.9443 32.9722 29.7378 33.1924 29.435C33.4126 29.1322 33.6812 28.8845 33.9983 28.6918C34.3143 28.4991 34.7063 28.4028 35.1742 28.4028C35.9174 28.4028 36.4751 28.6092 36.8473 29.0221C37.2183 29.435 37.4039 29.8892 37.4039 30.3847C37.4039 30.8526 37.2662 31.2721 36.991 31.6432C36.7157 32.0153 36.3854 32.3941 36 32.7794C35.2293 33.4401 34.7129 33.9768 34.4509 34.3897C34.1899 34.8026 34.0319 35.3669 33.9769 36.0826C33.9493 36.4129 34.0528 36.7019 34.2874 36.9496C34.5208 37.1974 34.8164 37.3212 35.1742 37.3212Z" fill="#1D3BC1"/>
</g>
<path d="M12.7188 90.4205C12.6581 89.8826 12.4081 89.4659 11.9688 89.1705C11.5294 88.8712 10.9763 88.7216 10.3097 88.7216C9.83239 88.7216 9.41951 88.7973 9.07102 88.9489C8.72254 89.0966 8.4517 89.3011 8.25852 89.5625C8.06913 89.8201 7.97443 90.1136 7.97443 90.4432C7.97443 90.7197 8.03883 90.9583 8.16761 91.1591C8.30019 91.3598 8.47254 91.5284 8.68466 91.6648C8.90057 91.7973 9.13163 91.9091 9.37784 92C9.62405 92.0871 9.8608 92.1591 10.0881 92.2159L11.2244 92.5114C11.5956 92.6023 11.9763 92.7254 12.3665 92.8807C12.7566 93.036 13.1184 93.2405 13.4517 93.4943C13.785 93.7481 14.054 94.0625 14.2585 94.4375C14.4669 94.8125 14.571 95.2614 14.571 95.7841C14.571 96.4432 14.4006 97.0284 14.0597 97.5398C13.7225 98.0511 13.232 98.4545 12.5881 98.75C11.9479 99.0455 11.1733 99.1932 10.2642 99.1932C9.39299 99.1932 8.6392 99.0549 8.00284 98.7784C7.36648 98.5019 6.86837 98.1098 6.50852 97.6023C6.14867 97.0909 5.94981 96.4848 5.91193 95.7841H7.6733C7.70739 96.2045 7.84375 96.5549 8.08239 96.8352C8.32481 97.1117 8.63352 97.3182 9.00852 97.4545C9.38731 97.5871 9.80208 97.6534 10.2528 97.6534C10.7491 97.6534 11.1903 97.5758 11.5767 97.4205C11.9669 97.2614 12.2737 97.0417 12.4972 96.7614C12.7206 96.4773 12.8324 96.1458 12.8324 95.767C12.8324 95.4223 12.7339 95.1402 12.5369 94.9205C12.3438 94.7008 12.0805 94.5189 11.7472 94.375C11.4176 94.2311 11.0445 94.1042 10.6278 93.9943L9.25284 93.6193C8.32102 93.3655 7.58239 92.9924 7.03693 92.5C6.49527 92.0076 6.22443 91.3561 6.22443 90.5455C6.22443 89.875 6.40625 89.2898 6.76989 88.7898C7.13352 88.2898 7.62595 87.9015 8.24716 87.625C8.86837 87.3447 9.56913 87.2045 10.3494 87.2045C11.1373 87.2045 11.8324 87.3428 12.4347 87.6193C13.0407 87.8958 13.518 88.2765 13.8665 88.7614C14.215 89.2424 14.3968 89.7955 14.4119 90.4205H12.7188ZM22.0611 95.3807V90.2727H23.7656V99H22.0952V97.4886H22.0043C21.8035 97.9545 21.4815 98.3428 21.0384 98.6534C20.599 98.9602 20.0516 99.1136 19.3963 99.1136C18.8357 99.1136 18.3395 98.9905 17.9077 98.7443C17.4796 98.4943 17.1425 98.125 16.8963 97.6364C16.6539 97.1477 16.5327 96.5436 16.5327 95.8239V90.2727H18.2315V95.6193C18.2315 96.214 18.3963 96.6875 18.7259 97.0398C19.0554 97.392 19.4834 97.5682 20.0099 97.5682C20.3281 97.5682 20.6444 97.4886 20.9588 97.3295C21.277 97.1705 21.5402 96.9299 21.7486 96.608C21.9607 96.286 22.0649 95.8769 22.0611 95.3807ZM26.0483 102.273V90.2727H27.7074V91.6875H27.8494C27.9479 91.5057 28.09 91.2955 28.2756 91.0568C28.4612 90.8182 28.7188 90.6098 29.0483 90.4318C29.3778 90.25 29.8134 90.1591 30.3551 90.1591C31.0597 90.1591 31.6884 90.3371 32.2415 90.6932C32.7945 91.0492 33.2282 91.5625 33.5426 92.233C33.8608 92.9034 34.0199 93.7102 34.0199 94.6534C34.0199 95.5966 33.8627 96.4053 33.5483 97.0795C33.2339 97.75 32.8021 98.267 32.2528 98.6307C31.7036 98.9905 31.0767 99.1705 30.3722 99.1705C29.8419 99.1705 29.4081 99.0814 29.071 98.9034C28.7377 98.7254 28.4763 98.517 28.2869 98.2784C28.0975 98.0398 27.9517 97.8277 27.8494 97.642H27.7472V102.273H26.0483ZM27.7131 94.6364C27.7131 95.25 27.8021 95.7879 27.9801 96.25C28.1581 96.7121 28.4157 97.0739 28.7528 97.3352C29.09 97.5928 29.5028 97.7216 29.9915 97.7216C30.4991 97.7216 30.9233 97.5871 31.2642 97.3182C31.6051 97.0455 31.8627 96.6761 32.0369 96.2102C32.215 95.7443 32.304 95.2197 32.304 94.6364C32.304 94.0606 32.2169 93.5436 32.0426 93.0852C31.8722 92.6269 31.6146 92.2652 31.2699 92C30.929 91.7348 30.5028 91.6023 29.9915 91.6023C29.4991 91.6023 29.0824 91.7292 28.7415 91.983C28.4044 92.2367 28.1487 92.5909 27.9744 93.0455C27.8002 93.5 27.7131 94.0303 27.7131 94.6364ZM35.9233 102.273V90.2727H37.5824V91.6875H37.7244C37.8229 91.5057 37.965 91.2955 38.1506 91.0568C38.3362 90.8182 38.5938 90.6098 38.9233 90.4318C39.2528 90.25 39.6884 90.1591 40.2301 90.1591C40.9347 90.1591 41.5634 90.3371 42.1165 90.6932C42.6695 91.0492 43.1032 91.5625 43.4176 92.233C43.7358 92.9034 43.8949 93.7102 43.8949 94.6534C43.8949 95.5966 43.7377 96.4053 43.4233 97.0795C43.1089 97.75 42.6771 98.267 42.1278 98.6307C41.5786 98.9905 40.9517 99.1705 40.2472 99.1705C39.7169 99.1705 39.2831 99.0814 38.946 98.9034C38.6127 98.7254 38.3513 98.517 38.1619 98.2784C37.9725 98.0398 37.8267 97.8277 37.7244 97.642H37.6222V102.273H35.9233ZM37.5881 94.6364C37.5881 95.25 37.6771 95.7879 37.8551 96.25C38.0331 96.7121 38.2907 97.0739 38.6278 97.3352C38.965 97.5928 39.3778 97.7216 39.8665 97.7216C40.3741 97.7216 40.7983 97.5871 41.1392 97.3182C41.4801 97.0455 41.7377 96.6761 41.9119 96.2102C42.09 95.7443 42.179 95.2197 42.179 94.6364C42.179 94.0606 42.0919 93.5436 41.9176 93.0852C41.7472 92.6269 41.4896 92.2652 41.1449 92C40.804 91.7348 40.3778 91.6023 39.8665 91.6023C39.3741 91.6023 38.9574 91.7292 38.6165 91.983C38.2794 92.2367 38.0237 92.5909 37.8494 93.0455C37.6752 93.5 37.5881 94.0303 37.5881 94.6364ZM49.4744 99.1761C48.6563 99.1761 47.9422 98.9886 47.3324 98.6136C46.7225 98.2386 46.2491 97.714 45.9119 97.0398C45.5748 96.3655 45.4062 95.5777 45.4062 94.6761C45.4062 93.7708 45.5748 92.9792 45.9119 92.3011C46.2491 91.6231 46.7225 91.0966 47.3324 90.7216C47.9422 90.3466 48.6563 90.1591 49.4744 90.1591C50.2926 90.1591 51.0066 90.3466 51.6165 90.7216C52.2263 91.0966 52.6998 91.6231 53.0369 92.3011C53.3741 92.9792 53.5426 93.7708 53.5426 94.6761C53.5426 95.5777 53.3741 96.3655 53.0369 97.0398C52.6998 97.714 52.2263 98.2386 51.6165 98.6136C51.0066 98.9886 50.2926 99.1761 49.4744 99.1761ZM49.4801 97.75C50.0104 97.75 50.4498 97.6098 50.7983 97.3295C51.1468 97.0492 51.4044 96.6761 51.571 96.2102C51.7415 95.7443 51.8267 95.2311 51.8267 94.6705C51.8267 94.1136 51.7415 93.6023 51.571 93.1364C51.4044 92.6667 51.1468 92.2898 50.7983 92.0057C50.4498 91.7216 50.0104 91.5795 49.4801 91.5795C48.946 91.5795 48.5028 91.7216 48.1506 92.0057C47.8021 92.2898 47.5426 92.6667 47.3722 93.1364C47.2055 93.6023 47.1222 94.1136 47.1222 94.6705C47.1222 95.2311 47.2055 95.7443 47.3722 96.2102C47.5426 96.6761 47.8021 97.0492 48.1506 97.3295C48.5028 97.6098 48.946 97.75 49.4801 97.75ZM55.4389 99V90.2727H57.081V91.6591H57.1719C57.331 91.1894 57.6113 90.8201 58.0128 90.5511C58.4181 90.2784 58.8764 90.142 59.3878 90.142C59.4938 90.142 59.6188 90.1458 59.7628 90.1534C59.9105 90.161 60.026 90.1705 60.1094 90.1818V91.8068C60.0412 91.7879 59.92 91.767 59.7457 91.7443C59.5715 91.7178 59.3973 91.7045 59.223 91.7045C58.8215 91.7045 58.4635 91.7898 58.1491 91.9602C57.8385 92.1269 57.5923 92.3598 57.4105 92.6591C57.2287 92.9545 57.1378 93.2917 57.1378 93.6705V99H55.4389ZM66.169 90.2727V91.6364H61.402V90.2727H66.169ZM62.6804 88.1818H64.3793V96.4375C64.3793 96.767 64.4285 97.0152 64.527 97.1818C64.6255 97.3447 64.7524 97.4564 64.9077 97.517C65.0668 97.5739 65.2391 97.6023 65.4247 97.6023C65.5611 97.6023 65.6804 97.5928 65.7827 97.5739C65.8849 97.5549 65.9645 97.5398 66.0213 97.5284L66.3281 98.9318C66.2296 98.9697 66.0895 99.0076 65.9077 99.0455C65.7259 99.0871 65.4986 99.1098 65.2259 99.1136C64.7789 99.1212 64.3622 99.0417 63.9759 98.875C63.5895 98.7083 63.277 98.4508 63.0384 98.1023C62.7997 97.7538 62.6804 97.3163 62.6804 96.7898V88.1818Z" fill="black"/>
</svg>
