<svg width="93" height="103" viewBox="0 0 93 103" fill="none" xmlns="http://www.w3.org/2000/svg">
<circle cx="46.5" cy="36" r="36" fill="#E8EBF7"/>
<path fill-rule="evenodd" clip-rule="evenodd" d="M36.1359 43.047C36.8431 43.958 38.2266 43.9327 39.0595 43.1349C41.0987 41.1815 43.6854 40.0134 46.5 40.0134C49.3146 40.0134 51.9014 41.1816 53.9407 43.1351C54.7735 43.9329 56.157 43.9583 56.8643 43.0472C57.3486 42.4233 57.3581 41.5444 56.8298 40.9571C54.1198 37.9445 50.4896 36.1023 46.5 36.1023C42.5105 36.1023 38.8804 37.9443 36.1704 40.9568C35.6421 41.5441 35.6515 42.4231 36.1359 43.047ZM58.6378 37.1095C59.4257 37.9518 60.8068 37.9688 61.514 37.0577C62.0004 36.4313 62.0079 35.5508 61.4914 34.9489C57.6188 30.4363 52.3304 27.657 46.4999 27.657C40.6695 27.657 35.3813 30.4362 31.5087 34.9486C30.9922 35.5504 30.9997 36.4309 31.4861 37.0574C32.1933 37.9684 33.5744 37.9515 34.3622 37.1091C37.5857 33.6629 41.8385 31.5681 46.4999 31.5681C51.1615 31.5681 55.4144 33.663 58.6378 37.1095ZM62.9261 31.6073C63.6953 32.464 65.0719 32.4747 65.778 31.5652C66.2673 30.9349 66.2721 30.0496 65.7572 29.44C60.8095 23.5823 54.0074 19.9657 46.4998 19.9657C38.9925 19.9657 32.1905 23.5821 27.2428 29.4394C26.7279 30.0491 26.7327 30.9344 27.222 31.5647C27.9281 32.4742 29.3047 32.4636 30.0739 31.6069C34.3807 26.8105 40.1541 23.8768 46.4998 23.8768C52.8456 23.8768 58.6192 26.8106 62.9261 31.6073Z" fill="#1D3BC1"/>
<circle cx="46.5" cy="48.485" r="3.54928" fill="#1D3BC1"/>
<path d="M9.19247 91.0398C9.08262 90.6951 8.9349 90.3864 8.74929 90.1136C8.56747 89.8371 8.34967 89.6023 8.09588 89.4091C7.84209 89.2121 7.55232 89.0625 7.22656 88.9602C6.90459 88.858 6.55043 88.8068 6.16406 88.8068C5.50876 88.8068 4.91785 88.9754 4.39134 89.3125C3.86482 89.6496 3.44815 90.1439 3.14134 90.7955C2.8383 91.4432 2.68679 92.2367 2.68679 93.1761C2.68679 94.1193 2.8402 94.9167 3.14702 95.5682C3.45384 96.2197 3.87429 96.714 4.40838 97.0511C4.94247 97.3883 5.55043 97.5568 6.23224 97.5568C6.86482 97.5568 7.41596 97.428 7.88565 97.1705C8.35914 96.9129 8.72467 96.5492 8.98224 96.0795C9.24361 95.6061 9.37429 95.0492 9.37429 94.4091L9.82884 94.4943H6.49929V93.0455H11.0732V94.3693C11.0732 95.3466 10.8648 96.1951 10.4482 96.9148C10.0353 97.6307 9.46331 98.1837 8.73224 98.5739C8.00497 98.964 7.17164 99.1591 6.23224 99.1591C5.17921 99.1591 4.25497 98.9167 3.45952 98.4318C2.66785 97.947 2.05043 97.2595 1.60724 96.3693C1.16406 95.4754 0.942472 94.4148 0.942472 93.1875C0.942472 92.2595 1.07126 91.4261 1.32884 90.6875C1.58641 89.9489 1.94815 89.322 2.41406 88.8068C2.88376 88.2879 3.4349 87.892 4.06747 87.6193C4.70384 87.3428 5.39891 87.2045 6.1527 87.2045C6.78149 87.2045 7.36671 87.2973 7.90838 87.483C8.45384 87.6686 8.93868 87.9318 9.36293 88.2727C9.79096 88.6136 10.1451 89.0189 10.4254 89.4886C10.7057 89.9545 10.8951 90.4716 10.9936 91.0398H9.19247ZM16.9268 99.1761C16.067 99.1761 15.3265 98.9924 14.7053 98.625C14.0878 98.2538 13.6106 97.733 13.2734 97.0625C12.9401 96.3883 12.7734 95.5985 12.7734 94.6932C12.7734 93.7992 12.9401 93.0114 13.2734 92.3295C13.6106 91.6477 14.0803 91.1155 14.6825 90.733C15.2886 90.3504 15.9969 90.1591 16.8075 90.1591C17.3 90.1591 17.7772 90.2405 18.2393 90.4034C18.7015 90.5663 19.1162 90.822 19.4837 91.1705C19.8511 91.5189 20.1409 91.9716 20.353 92.5284C20.5651 93.0814 20.6712 93.7538 20.6712 94.5455V95.1477H13.7337V93.875H19.0064C19.0064 93.428 18.9155 93.0322 18.7337 92.6875C18.5518 92.339 18.2962 92.0644 17.9666 91.8636C17.6409 91.6629 17.2583 91.5625 16.8189 91.5625C16.3416 91.5625 15.925 91.6799 15.5689 91.9148C15.2166 92.1458 14.9439 92.4489 14.7507 92.8239C14.5613 93.1951 14.4666 93.5985 14.4666 94.0341V95.0284C14.4666 95.6117 14.5689 96.108 14.7734 96.517C14.9818 96.9261 15.2715 97.2386 15.6428 97.4545C16.014 97.6667 16.4477 97.7727 16.9439 97.7727C17.2659 97.7727 17.5594 97.7273 17.8246 97.6364C18.0897 97.5417 18.3189 97.4015 18.5121 97.2159C18.7053 97.0303 18.853 96.8011 18.9553 96.5284L20.5632 96.8182C20.4344 97.2917 20.2034 97.7064 19.87 98.0625C19.5405 98.4148 19.1257 98.6894 18.6257 98.8864C18.1295 99.0795 17.5632 99.1761 16.9268 99.1761ZM26.63 90.2727V91.6364H21.8629V90.2727H26.63ZM23.1413 88.1818H24.8402V96.4375C24.8402 96.767 24.8894 97.0152 24.9879 97.1818C25.0864 97.3447 25.2133 97.4564 25.3686 97.517C25.5277 97.5739 25.7 97.6023 25.8857 97.6023C26.022 97.6023 26.1413 97.5928 26.2436 97.5739C26.3459 97.5549 26.4254 97.5398 26.4822 97.5284L26.7891 98.9318C26.6906 98.9697 26.5504 99.0076 26.3686 99.0455C26.1868 99.0871 25.9595 99.1098 25.6868 99.1136C25.2398 99.1212 24.8232 99.0417 24.4368 98.875C24.0504 98.7083 23.7379 98.4508 23.4993 98.1023C23.2607 97.7538 23.1413 97.3163 23.1413 96.7898V88.1818ZM37.4027 87.3636H39.1527V95.6136C39.1527 96.3598 39.005 96.9981 38.7095 97.5284C38.4179 98.0587 38.0069 98.464 37.4766 98.7443C36.9463 99.0208 36.325 99.1591 35.6129 99.1591C34.9576 99.1591 34.3686 99.0398 33.8459 98.8011C33.3269 98.5625 32.916 98.2159 32.6129 97.7614C32.3137 97.303 32.1641 96.7462 32.1641 96.0909H33.9084C33.9084 96.4129 33.9822 96.6913 34.13 96.9261C34.2815 97.161 34.4879 97.3447 34.7493 97.4773C35.0144 97.6061 35.3175 97.6705 35.6584 97.6705C36.0296 97.6705 36.344 97.5928 36.6016 97.4375C36.8629 97.2784 37.0618 97.0455 37.1982 96.7386C37.3345 96.4318 37.4027 96.0568 37.4027 95.6136V87.3636ZM41.5717 99V90.2727H43.2706V99H41.5717ZM42.4297 88.9261C42.1342 88.9261 41.8804 88.8277 41.6683 88.6307C41.46 88.4299 41.3558 88.1913 41.3558 87.9148C41.3558 87.6345 41.46 87.3958 41.6683 87.1989C41.8804 86.9981 42.1342 86.8977 42.4297 86.8977C42.7251 86.8977 42.977 86.9981 43.1854 87.1989C43.3975 87.3958 43.5036 87.6345 43.5036 87.9148C43.5036 88.1913 43.3975 88.4299 43.1854 88.6307C42.977 88.8277 42.7251 88.9261 42.4297 88.9261ZM49.2322 99.1761C48.4141 99.1761 47.7 98.9886 47.0902 98.6136C46.4804 98.2386 46.0069 97.714 45.6697 97.0398C45.3326 96.3655 45.1641 95.5777 45.1641 94.6761C45.1641 93.7708 45.3326 92.9792 45.6697 92.3011C46.0069 91.6231 46.4804 91.0966 47.0902 90.7216C47.7 90.3466 48.4141 90.1591 49.2322 90.1591C50.0504 90.1591 50.7644 90.3466 51.3743 90.7216C51.9841 91.0966 52.4576 91.6231 52.7947 92.3011C53.1319 92.9792 53.3004 93.7708 53.3004 94.6761C53.3004 95.5777 53.1319 96.3655 52.7947 97.0398C52.4576 97.714 51.9841 98.2386 51.3743 98.6136C50.7644 98.9886 50.0504 99.1761 49.2322 99.1761ZM49.2379 97.75C49.7682 97.75 50.2076 97.6098 50.5561 97.3295C50.9046 97.0492 51.1622 96.6761 51.3288 96.2102C51.4993 95.7443 51.5845 95.2311 51.5845 94.6705C51.5845 94.1136 51.4993 93.6023 51.3288 93.1364C51.1622 92.6667 50.9046 92.2898 50.5561 92.0057C50.2076 91.7216 49.7682 91.5795 49.2379 91.5795C48.7038 91.5795 48.2607 91.7216 47.9084 92.0057C47.5599 92.2898 47.3004 92.6667 47.13 93.1364C46.9633 93.6023 46.88 94.1136 46.88 94.6705C46.88 95.2311 46.9633 95.7443 47.13 96.2102C47.3004 96.6761 47.5599 97.0492 47.9084 97.3295C48.2607 97.6098 48.7038 97.75 49.2379 97.75ZM55.3331 99V87.3636H62.549V88.875H57.0888V92.4205H62.032V93.9261H57.0888V99H55.3331ZM64.5717 99V90.2727H66.2706V99H64.5717ZM65.4297 88.9261C65.1342 88.9261 64.8804 88.8277 64.6683 88.6307C64.46 88.4299 64.3558 88.1913 64.3558 87.9148C64.3558 87.6345 64.46 87.3958 64.6683 87.1989C64.8804 86.9981 65.1342 86.8977 65.4297 86.8977C65.7251 86.8977 65.977 86.9981 66.1854 87.1989C66.3975 87.3958 66.5036 87.6345 66.5036 87.9148C66.5036 88.1913 66.3975 88.4299 66.1854 88.6307C65.977 88.8277 65.7251 88.9261 65.4297 88.9261ZM68.6925 99V87.3636H70.3913V91.6875H70.4936C70.5921 91.5057 70.7341 91.2955 70.9197 91.0568C71.1054 90.8182 71.3629 90.6098 71.6925 90.4318C72.022 90.25 72.4576 90.1591 72.9993 90.1591C73.7038 90.1591 74.3326 90.3371 74.8857 90.6932C75.4387 91.0492 75.8724 91.5625 76.1868 92.233C76.505 92.9034 76.6641 93.7102 76.6641 94.6534C76.6641 95.5966 76.5069 96.4053 76.1925 97.0795C75.8781 97.75 75.4463 98.267 74.897 98.6307C74.3478 98.9905 73.7209 99.1705 73.0163 99.1705C72.486 99.1705 72.0523 99.0814 71.7152 98.9034C71.3819 98.7254 71.1205 98.517 70.9311 98.2784C70.7417 98.0398 70.5959 97.8277 70.4936 97.642H70.3516V99H68.6925ZM70.3572 94.6364C70.3572 95.25 70.4463 95.7879 70.6243 96.25C70.8023 96.7121 71.0599 97.0739 71.397 97.3352C71.7341 97.5928 72.147 97.7216 72.6357 97.7216C73.1432 97.7216 73.5675 97.5871 73.9084 97.3182C74.2493 97.0455 74.5069 96.6761 74.6811 96.2102C74.8591 95.7443 74.9482 95.2197 74.9482 94.6364C74.9482 94.0606 74.861 93.5436 74.6868 93.0852C74.5163 92.6269 74.2588 92.2652 73.9141 92C73.5732 91.7348 73.147 91.6023 72.6357 91.6023C72.1432 91.6023 71.7266 91.7292 71.3857 91.983C71.0485 92.2367 70.7929 92.5909 70.6186 93.0455C70.4444 93.5 70.3572 94.0303 70.3572 94.6364ZM82.3331 99.1761C81.4732 99.1761 80.7327 98.9924 80.1115 98.625C79.4941 98.2538 79.0168 97.733 78.6797 97.0625C78.3464 96.3883 78.1797 95.5985 78.1797 94.6932C78.1797 93.7992 78.3464 93.0114 78.6797 92.3295C79.0168 91.6477 79.4865 91.1155 80.0888 90.733C80.6948 90.3504 81.4032 90.1591 82.2138 90.1591C82.7062 90.1591 83.1835 90.2405 83.6456 90.4034C84.1077 90.5663 84.5225 90.822 84.8899 91.1705C85.2573 91.5189 85.5471 91.9716 85.7592 92.5284C85.9714 93.0814 86.0774 93.7538 86.0774 94.5455V95.1477H79.1399V93.875H84.4126C84.4126 93.428 84.3217 93.0322 84.1399 92.6875C83.9581 92.339 83.7024 92.0644 83.3729 91.8636C83.0471 91.6629 82.6645 91.5625 82.2251 91.5625C81.7479 91.5625 81.3312 91.6799 80.9751 91.9148C80.6229 92.1458 80.3501 92.4489 80.157 92.8239C79.9676 93.1951 79.8729 93.5985 79.8729 94.0341V95.0284C79.8729 95.6117 79.9751 96.108 80.1797 96.517C80.388 96.9261 80.6778 97.2386 81.049 97.4545C81.4202 97.6667 81.8539 97.7727 82.3501 97.7727C82.6721 97.7727 82.9657 97.7273 83.2308 97.6364C83.496 97.5417 83.7251 97.4015 83.9183 97.2159C84.1115 97.0303 84.2592 96.8011 84.3615 96.5284L85.9695 96.8182C85.8407 97.2917 85.6096 97.7064 85.2763 98.0625C84.9467 98.4148 84.532 98.6894 84.032 98.8864C83.5357 99.0795 82.9695 99.1761 82.3331 99.1761ZM87.9624 99V90.2727H89.6044V91.6591H89.6953C89.8544 91.1894 90.1347 90.8201 90.5362 90.5511C90.9415 90.2784 91.3999 90.142 91.9112 90.142C92.0173 90.142 92.1423 90.1458 92.2862 90.1534C92.4339 90.161 92.5495 90.1705 92.6328 90.1818V91.8068C92.5646 91.7879 92.4434 91.767 92.2692 91.7443C92.0949 91.7178 91.9207 91.7045 91.7464 91.7045C91.3449 91.7045 90.987 91.7898 90.6726 91.9602C90.362 92.1269 90.1158 92.3598 89.9339 92.6591C89.7521 92.9545 89.6612 93.2917 89.6612 93.6705V99H87.9624Z" fill="black"/>
</svg>
